<svg xmlns="http://www.w3.org/2000/svg" viewBox="0 0 1280 720">
  <!-- 洞穴背景 -->
  <rect width="1280" height="720" fill="#2C3E50"/>
  
  <!-- 洞穴岩壁纹理 -->
  <path d="M0 0 Q 640 60 1280 0 Q 1240 360 1280 720 Q 640 660 0 720 Q 40 360 0 0" fill="#34495E"/>
  
  <!-- 钟乳石 -->
  <path d="M100 0 L 120 100 L 80 100 Z" fill="#7F8C8D"/>
  <path d="M500 0 L 520 150 L 480 150 Z" fill="#7F8C8D"/>
  <path d="M900 0 L 920 120 L 880 120 Z" fill="#7F8C8D"/>
  
  <!-- 地面的石笋 -->
  <path d="M200 720 L 220 620 L 180 620 Z" fill="#7F8C8D"/>
  <path d="M700 720 L 720 600 L 680 600 Z" fill="#7F8C8D"/>
  <path d="M1100 720 L 1120 650 L 1080 650 Z" fill="#7F8C8D"/>
  
  <!-- 发光的水晶 -->
  <circle cx="300" cy="200" r="20" fill="#3498DB" opacity="0.7"/>
  <circle cx="800" cy="300" r="15" fill="#3498DB" opacity="0.7"/>
  <circle cx="1100" cy="400" r="25" fill="#3498DB" opacity="0.7"/>
</svg>
