<svg xmlns="http://www.w3.org/2000/svg" viewBox="0 0 200 300">
  <!-- 身体 -->
  <path d="M60 150 Q 100 120 140 150 Q 160 220 100 250 Q 40 220 60 150" fill="#FF7F00" />
  
  <!-- 头 -->
  <path d="M50 100 Q 100 60 150 100 Q 140 150 100 160 Q 60 150 50 100" fill="#FF7F00" />
  
  <!-- 耳朵 -->
  <path d="M60 80 L 40 20 L 80 50 Z" fill="#FF7F00" stroke="#000000" stroke-width="2" />
  <path d="M140 80 L 160 20 L 120 50 Z" fill="#FF7F00" stroke="#000000" stroke-width="2" />
  
  <!-- 眼睛（担心的眼神） -->
  <ellipse cx="80" cy="100" rx="10" ry="15" fill="#FFFFFF" />
  <ellipse cx="120" cy="100" rx="10" ry="15" fill="#FFFFFF" />
  <circle cx="80" cy="105" r="5" fill="#000000" />
  <circle cx="120" cy="105" r="5" fill="#000000" />
  
  <!-- 眉毛（皱眉） -->
  <path d="M70 85 Q 80 80 90 85" fill="none" stroke="#000000" stroke-width="2" />
  <path d="M110 85 Q 120 80 130 85" fill="none" stroke="#000000" stroke-width="2" />
  
  <!-- 鼻子 -->
  <path d="M95 115 Q 100 120 105 115" fill="none" stroke="#000000" stroke-width="2" />
  
  <!-- 嘴（担心的表情） -->
  <path d="M90 130 Q 100 125 110 130" fill="none" stroke="#000000" stroke-width="2" />
  
  <!-- 胡须 -->
  <line x1="90" y1="120" x2="60" y2="115" stroke="#000000" stroke-width="1" />
  <line x1="90" y1="125" x2="60" y2="125" stroke="#000000" stroke-width="1" />
  <line x1="110" y1="120" x2="140" y2="115" stroke="#000000" stroke-width="1" />
  <line x1="110" y1="125" x2="140" y2="125" stroke="#000000" stroke-width="1" />
  
  <!-- 尾巴（耷拉） -->
  <path d="M140 220 Q 160 230 170 260" fill="#FF7F00" stroke="#000000" stroke-width="2" />
</svg>
